<svg width="33" height="33" viewBox="0 0 33 33" fill="none" xmlns="http://www.w3.org/2000/svg">
<g id="Social Icons">
<path id="BG" opacity="0.1" fill-rule="evenodd" clip-rule="evenodd" d="M0.5 16.0352C0.5 7.1986 7.66344 0.0351562 16.5 0.0351562C25.3366 0.0351562 32.5 7.1986 32.5 16.0352C32.5 24.8717 25.3366 32.0352 16.5 32.0352C7.66344 32.0352 0.5 24.8717 0.5 16.0352Z" fill="#FDFDFD"/>
<path id="Path" fill-rule="evenodd" clip-rule="evenodd" d="M16.5008 7.50183C14.1833 7.50183 13.8924 7.51196 12.9822 7.55339C12.0737 7.59499 11.4536 7.73881 10.9111 7.94984C10.3498 8.16779 9.87372 8.45935 9.3994 8.93385C8.92473 9.40816 8.63317 9.88426 8.4145 10.4453C8.20294 10.9881 8.05894 11.6084 8.01805 12.5165C7.97734 13.4267 7.96667 13.7177 7.96667 16.0353C7.96667 18.3528 7.97699 18.6427 8.01823 19.553C8.06001 20.4614 8.20383 21.0815 8.41468 21.6241C8.63282 22.1854 8.92437 22.6615 9.39887 23.1358C9.87301 23.6104 10.3491 23.9027 10.91 24.1207C11.4529 24.3317 12.0732 24.4755 12.9815 24.5171C13.8917 24.5585 14.1824 24.5687 16.4997 24.5687C18.8175 24.5687 19.1074 24.5585 20.0176 24.5171C20.9261 24.4755 21.5469 24.3317 22.0898 24.1207C22.6509 23.9027 23.1263 23.6104 23.6004 23.1358C24.0751 22.6615 24.3667 22.1854 24.5853 21.6243C24.7951 21.0815 24.9391 20.4613 24.9818 19.5532C25.0227 18.6429 25.0333 18.3528 25.0333 16.0353C25.0333 13.7177 25.0227 13.4269 24.9818 12.5166C24.9391 11.6082 24.7951 10.9881 24.5853 10.4455C24.3667 9.88426 24.0751 9.40816 23.6004 8.93385C23.1258 8.45917 22.6511 8.16762 22.0893 7.94984C21.5453 7.73881 20.9249 7.59499 20.0164 7.55339C19.1062 7.51196 18.8164 7.50183 16.4981 7.50183H16.5008ZM15.7353 9.0396C15.9625 9.03925 16.216 9.0396 16.5008 9.0396C18.7792 9.0396 19.0492 9.04778 19.949 9.08867C20.781 9.12671 21.2326 9.26574 21.5334 9.38254C21.9316 9.53721 22.2155 9.7221 22.514 10.0208C22.8127 10.3194 22.9976 10.6039 23.1526 11.0021C23.2694 11.3026 23.4086 11.7541 23.4464 12.5861C23.4873 13.4857 23.4962 13.7559 23.4962 16.0333C23.4962 18.3106 23.4873 18.5809 23.4464 19.4804C23.4084 20.3124 23.2694 20.764 23.1526 21.0644C22.9979 21.4627 22.8127 21.7462 22.514 22.0447C22.2153 22.3434 21.9318 22.5283 21.5334 22.6829C21.2329 22.8003 20.781 22.9389 19.949 22.977C19.0494 23.0179 18.7792 23.0268 16.5008 23.0268C14.2222 23.0268 13.9521 23.0179 13.0526 22.977C12.2205 22.9386 11.769 22.7996 11.468 22.6828C11.0698 22.5281 10.7853 22.3432 10.4867 22.0445C10.188 21.7459 10.0031 21.4621 9.84808 21.0637C9.73128 20.7633 9.59208 20.3117 9.55421 19.4797C9.51332 18.5801 9.50514 18.3099 9.50514 16.0311C9.50514 13.7524 9.51332 13.4836 9.55421 12.584C9.59226 11.752 9.73128 11.3004 9.84808 10.9996C10.0027 10.6014 10.188 10.3169 10.4867 10.0183C10.7853 9.71961 11.0698 9.53472 11.468 9.37969C11.7688 9.26236 12.2205 9.12369 13.0526 9.08547C13.8398 9.04991 14.1448 9.03925 15.7353 9.03747V9.0396ZM21.0558 10.4565C20.4905 10.4565 20.0318 10.9146 20.0318 11.4802C20.0318 12.0455 20.4905 12.5042 21.0558 12.5042C21.6212 12.5042 22.0799 12.0455 22.0799 11.4802C22.0799 10.9148 21.6212 10.4565 21.0558 10.4565ZM16.5008 11.653C14.0807 11.653 12.1186 13.6151 12.1186 16.0352C12.1186 18.4553 14.0807 20.4166 16.5008 20.4166C18.9209 20.4166 20.8824 18.4553 20.8824 16.0352C20.8824 13.6151 18.9209 11.653 16.5008 11.653ZM16.5008 13.1908C18.0717 13.1908 19.3453 14.4642 19.3453 16.0352C19.3453 17.6061 18.0717 18.8797 16.5008 18.8797C14.9298 18.8797 13.6563 17.6061 13.6563 16.0352C13.6563 14.4642 14.9298 13.1908 16.5008 13.1908Z" fill="#FDFDFD"/>
</g>
</svg>
