<svg width="130" height="91" viewBox="0 0 130 91" fill="none" xmlns="http://www.w3.org/2000/svg">
<mask id="mask0_533_1765" style="mask-type:luminance" maskUnits="userSpaceOnUse" x="34" y="0" width="53" height="19">
<path d="M34.0879 0.933228H86.3907V18.7153H34.0879V0.933228Z" fill="white"/>
</mask>
<g mask="url(#mask0_533_1765)">
<path fill-rule="evenodd" clip-rule="evenodd" d="M35.0263 18.5455L60.1713 2.20824L85.3132 18.5455C85.5726 18.7153 85.9214 18.6382 86.0912 18.3788C86.2579 18.1164 86.1838 17.7676 85.9245 17.5978L60.4739 1.0629C60.2886 0.942495 60.0509 0.942495 59.8657 1.0629L34.4181 17.5978C34.1557 17.7676 34.0816 18.1164 34.2514 18.3788C34.4181 18.6382 34.767 18.7153 35.0263 18.5455Z" fill="white"/>
</g>
<mask id="mask1_533_1765" style="mask-type:luminance" maskUnits="userSpaceOnUse" x="65" y="0" width="31" height="19">
<path d="M65.0518 0.933228H95.7321V18.7153H65.0518V0.933228Z" fill="white"/>
</mask>
<g mask="url(#mask1_533_1765)">
<path fill-rule="evenodd" clip-rule="evenodd" d="M66.3854 5.54866L71.01 2.54484L94.7812 18.2061C95.0406 18.3759 95.3894 18.3048 95.5592 18.0424C95.729 17.7831 95.658 17.4343 95.3987 17.2645L71.3218 1.3995C71.1335 1.27601 70.8958 1.27601 70.7075 1.3995C70.7075 1.3995 68.6607 2.72698 65.7773 4.60398C65.5149 4.77069 65.4408 5.11954 65.6106 5.38195C65.7773 5.64436 66.1261 5.71845 66.3854 5.54866Z" fill="white"/>
</g>
<path fill-rule="evenodd" clip-rule="evenodd" d="M48.6841 9.16652V4.90623C48.6841 4.59442 48.434 4.34436 48.1253 4.34436H43.4451C43.1364 4.34436 42.8864 4.59442 42.8864 4.90623V12.405C42.8864 12.7137 43.1364 12.9637 43.4451 12.9637C43.7538 12.9637 44.007 12.7137 44.007 12.405V5.46809H47.5634V9.16652C47.5634 9.47524 47.8166 9.7253 48.1253 9.7253C48.434 9.7253 48.6841 9.47524 48.6841 9.16652Z" fill="white"/>
<mask id="mask2_533_1765" style="mask-type:luminance" maskUnits="userSpaceOnUse" x="10" y="86" width="105" height="5">
<path d="M114.052 86.1854H10.5203V90.137H114.052V86.1854Z" fill="white"/>
</mask>
<g mask="url(#mask2_533_1765)">
<path d="M12.2153 88.4111H112.388" stroke="white" stroke-width="1.00018"/>
</g>
<mask id="mask3_533_1765" style="mask-type:luminance" maskUnits="userSpaceOnUse" x="52" y="51" width="6" height="24">
<path d="M52.5952 51.4114H57.9391V74.133H52.5952V51.4114Z" fill="white"/>
</mask>
<g mask="url(#mask3_533_1765)">
<path d="M57.4514 56.0547H55.4448V51.4147H54.497V56.0547H52.6077V69.4931H54.497V74.1332H55.4448V69.4931H57.4514V56.0547Z" fill="#EF5252"/>
</g>
<path d="M65.0152 48.7996H63.2431V44.1596H62.2954V48.7996H60.2887V62.2381H62.2954V66.8781H63.2431V62.2381H65.0152V48.7996Z" fill="#44D37E"/>
<path d="M72.8134 42.6161H70.8036V37.9761H69.859V42.6161H68.0869V56.0545H69.859V60.6946H70.8036V56.0545H72.8134V42.6161Z" fill="#44D37E"/>
<path d="M80.3737 45.8267H78.6016V41.1866H77.657V45.8267H75.6472V59.2651H77.657V63.9051H78.6016V59.2651H80.3737V45.8267Z" fill="#EF5252"/>
<path d="M88.1718 55.2212H86.1651V50.5842H85.2173V55.2212H83.4453V68.6627H85.2173V73.2996H86.1651V68.6627H88.1718V55.2212Z" fill="#EF5252"/>
<mask id="mask4_533_1765" style="mask-type:luminance" maskUnits="userSpaceOnUse" x="90" y="41" width="6" height="24">
<path d="M90.3423 41.1375H95.8652V64.0566H90.3423V41.1375Z" fill="white"/>
</mask>
<g mask="url(#mask4_533_1765)">
<path d="M95.8528 45.8271H93.9635V41.1871H93.0157V45.8271H91.009V59.2655H93.0157V63.9056H93.9635V59.2655H95.8528V45.8271Z" fill="#44D37E"/>
</g>
<path d="M4.95182 30.3747C5.84093 30.4488 6.55715 30.7452 7.10049 31.2638C7.64384 31.7825 7.91551 32.4215 7.91551 33.1779C7.91551 33.7706 7.76115 34.3109 7.45861 34.7955C7.16224 35.2741 6.75473 35.6476 6.23609 35.9193C5.71744 36.1909 5.13088 36.3268 4.48257 36.3268C4.12755 36.3268 3.73548 36.3083 3.30945 36.2774C3.152 36.2681 2.96677 36.2619 2.75376 36.2527C2.54692 36.2373 2.3092 36.228 2.03753 36.228L0.876757 36.2527C0.669916 36.2619 0.385896 36.265 0.0246974 36.265C0.00617395 36.265 0 36.2342 0 36.1662C0 36.1014 0.00617395 36.0675 0.0246974 36.0675C0.426029 36.0675 0.728572 36.0397 0.926151 35.981C1.12373 35.9162 1.25339 35.805 1.32131 35.6476C1.3954 35.4932 1.43245 35.2463 1.43245 34.9067V27.1517C1.43245 26.8245 1.39849 26.5806 1.33366 26.4231C1.26574 26.2688 1.13917 26.1607 0.950849 26.1021C0.759444 26.0372 0.463076 26.0033 0.0617434 26.0033C0.0277843 26.0033 0.0123487 25.9724 0.0123487 25.9045C0.0123487 25.8304 0.0277843 25.7934 0.0617434 25.7934L0.876757 25.818C1.34601 25.8427 1.7319 25.8551 2.03753 25.8551C2.23511 25.8551 2.42034 25.852 2.59322 25.8427C2.76611 25.8273 2.91429 25.8119 3.03778 25.7934C3.38354 25.7625 3.71078 25.744 4.02567 25.744C4.98887 25.744 5.70818 25.9477 6.18669 26.349C6.67138 26.7535 6.91526 27.2875 6.91526 27.9544C6.91526 28.4977 6.74238 28.9793 6.39662 29.3992C6.05086 29.8128 5.56926 30.137 4.95182 30.3747ZM3.69226 26.0156C3.41132 26.0156 3.2014 26.0403 3.06247 26.0897C2.92046 26.1391 2.81859 26.2503 2.75376 26.4231C2.68584 26.5898 2.65497 26.843 2.65497 27.1888V30.3747L3.40824 30.3871C4.18003 30.3871 4.75424 30.1771 5.1247 29.7573C5.50134 29.3312 5.69274 28.7694 5.69274 28.0779C5.69274 27.4542 5.52604 26.9541 5.1988 26.5837C4.87773 26.207 4.37452 26.0156 3.69226 26.0156ZM4.2356 36.0181C5.03209 36.0181 5.62483 35.8081 6.01381 35.3883C6.40897 34.9684 6.60655 34.3726 6.60655 33.5977C6.60655 32.7518 6.36266 32.0665 5.87797 31.5478C5.3902 31.0292 4.72028 30.7668 3.86514 30.7575C3.55025 30.7513 3.14891 30.7637 2.65497 30.7946V34.9067C2.65497 35.1876 2.6951 35.4068 2.77845 35.5612C2.86798 35.7186 3.02543 35.8328 3.2477 35.9069C3.46998 35.981 3.79722 36.0181 4.2356 36.0181Z" fill="white"/>
<path d="M17.3977 36.4625C16.3604 36.4625 15.4373 36.2217 14.6316 35.7339C13.8228 35.2492 13.1992 34.5917 12.7546 33.7581C12.31 32.9277 12.0878 32.0232 12.0878 31.0414C12.0878 29.8899 12.3749 28.9051 12.9522 28.0901C13.5357 27.2689 14.2797 26.6515 15.1873 26.2378C16.1011 25.8272 17.0334 25.6204 17.9904 25.6204C19.0524 25.6204 19.9817 25.8673 20.7812 26.3613C21.587 26.8552 22.2044 27.5097 22.6335 28.3247C23.0596 29.1397 23.2757 30.0041 23.2757 30.9179C23.2757 31.9398 23.0071 32.8752 22.473 33.7211C21.9358 34.5701 21.2196 35.24 20.3243 35.7339C19.426 36.2217 18.4504 36.4625 17.3977 36.4625ZM17.9904 36.092C18.7221 36.092 19.3797 35.913 19.9662 35.5487C20.559 35.1782 21.022 34.6411 21.3616 33.931C21.6981 33.2241 21.8679 32.3751 21.8679 31.3872C21.8679 30.3499 21.6765 29.4238 21.2999 28.6087C20.9294 27.7937 20.3984 27.1609 19.7069 26.707C19.0154 26.2471 18.2127 26.0155 17.2989 26.0155C16.1042 26.0155 15.1688 26.4107 14.4958 27.201C13.8289 27.9851 13.4955 29.0656 13.4955 30.4487C13.4955 31.5045 13.6838 32.4615 14.0636 33.3259C14.4495 34.1842 14.9804 34.8572 15.6565 35.3511C16.3388 35.8451 17.1168 36.092 17.9904 36.092Z" fill="white"/>
<path d="M38.1091 36.0675C38.1399 36.0675 38.1585 36.1014 38.1585 36.1662C38.1585 36.2342 38.1399 36.265 38.1091 36.265H35.8122C35.5405 36.265 35.0343 35.8143 34.2933 34.9067C33.5524 33.9929 32.6448 32.721 31.5766 31.0909C31.271 31.1496 30.9901 31.1774 30.7369 31.1774C30.6783 31.1774 30.4158 31.1619 29.9466 31.128V34.9067C29.9466 35.2524 29.9775 35.5056 30.0454 35.66C30.1102 35.8174 30.2368 35.9254 30.4282 35.981C30.6258 36.0397 30.9283 36.0675 31.342 36.0675C31.3729 36.0675 31.3914 36.1014 31.3914 36.1662C31.3914 36.2342 31.3729 36.265 31.342 36.265C30.9777 36.265 30.7029 36.2619 30.5146 36.2527L29.3292 36.228L28.1684 36.2527C27.9615 36.2619 27.6775 36.265 27.3163 36.265C27.2978 36.265 27.2916 36.2342 27.2916 36.1662C27.2916 36.1014 27.2978 36.0675 27.3163 36.0675C27.7269 36.0675 28.0264 36.0397 28.2178 35.981C28.4154 35.9254 28.545 35.8174 28.6129 35.66C28.687 35.4963 28.7241 35.2463 28.7241 34.9067V27.1517C28.7241 26.8245 28.6901 26.5806 28.6253 26.4231C28.5574 26.2688 28.4308 26.1607 28.2425 26.1021C28.0511 26.0372 27.7547 26.0033 27.3534 26.0033C27.3194 26.0033 27.304 25.9724 27.304 25.9045C27.304 25.8304 27.3194 25.7934 27.3534 25.7934L28.1684 25.818C28.6376 25.8427 29.0235 25.8551 29.3292 25.8551C29.5669 25.8551 29.7891 25.852 29.996 25.8427C30.209 25.8273 30.3942 25.8119 30.5517 25.7934C30.9623 25.7625 31.3482 25.744 31.7125 25.744C32.6016 25.744 33.2931 25.9477 33.787 26.349C34.2872 26.7442 34.5403 27.2752 34.5403 27.942C34.5403 28.544 34.3612 29.0905 34.0093 29.5844C33.6543 30.0783 33.1881 30.4673 32.6139 30.7452C33.5524 32.0974 34.3335 33.1501 34.9602 33.9064C35.593 34.6659 36.158 35.2154 36.6519 35.5612C37.1521 35.9008 37.6398 36.0675 38.1091 36.0675ZM29.9466 30.7205C30.2584 30.7544 30.5887 30.7699 30.9345 30.7699C31.7742 30.7699 32.37 30.5846 32.725 30.2142C33.0862 29.8375 33.2684 29.251 33.2684 28.4607C33.2684 27.5808 33.0832 26.9541 32.7127 26.5837C32.3422 26.207 31.8112 26.0156 31.1197 26.0156C30.6813 26.0156 30.3788 26.099 30.2059 26.2626C30.033 26.42 29.9466 26.7288 29.9466 27.1888V30.7205Z" fill="white"/>
<path d="M52.211 36.0673C52.2512 36.0673 52.2728 36.1013 52.2728 36.1661C52.2728 36.2341 52.2512 36.2649 52.211 36.2649C51.9949 36.2649 51.6677 36.2526 51.2231 36.2279C50.7786 36.2124 50.4483 36.2032 50.2353 36.2032C49.979 36.2032 49.661 36.2124 49.2844 36.2279C48.9201 36.2526 48.6423 36.2649 48.4447 36.2649C48.3953 36.2649 48.3706 36.2341 48.3706 36.1661C48.3706 36.1013 48.3953 36.0673 48.4447 36.0673C48.846 36.0673 49.1362 36.0303 49.3091 35.9562C49.482 35.8821 49.5684 35.7525 49.5684 35.5611C49.5684 35.3974 49.4882 35.1474 49.3338 34.8078L47.889 31.7947H43.888L42.9001 34.0916C42.7519 34.4219 42.6779 34.7275 42.6779 35.0054C42.6779 35.7154 43.2212 36.0673 44.3079 36.0673C44.3635 36.0673 44.3943 36.1013 44.3943 36.1661C44.3943 36.2341 44.3635 36.2649 44.3079 36.2649C44.101 36.2649 43.8078 36.2526 43.4311 36.2279C43.0113 36.2124 42.6439 36.2032 42.3321 36.2032C42.0512 36.2032 41.7085 36.2124 41.3072 36.2279C40.9676 36.2526 40.6835 36.2649 40.4551 36.2649C40.3995 36.2649 40.3687 36.2341 40.3687 36.1661C40.3687 36.1013 40.3995 36.0673 40.4551 36.0673C40.7669 36.0673 41.0293 36.0118 41.2454 35.8945C41.4677 35.771 41.6776 35.5611 41.8752 35.2647C42.0789 34.9621 42.3074 34.5207 42.5544 33.9434L46.0861 25.6698C46.1015 25.6389 46.1417 25.6204 46.2096 25.6204C46.2837 25.6204 46.3238 25.6389 46.3331 25.6698L50.3217 33.9681C50.6983 34.7831 51.0194 35.3388 51.2849 35.6351C51.5566 35.9253 51.8653 36.0673 52.211 36.0673ZM44.0362 31.4366H47.7285L45.7774 27.3862L44.0362 31.4366Z" fill="white"/>
<path d="M69.1983 33.7581C69.1983 33.7272 69.2291 33.7148 69.2971 33.721C69.3619 33.721 69.3959 33.7395 69.3959 33.7704C69.2971 34.4959 69.2477 35.2461 69.2477 36.0179C69.2477 36.1105 69.2261 36.1753 69.1859 36.2154C69.1427 36.2494 69.0748 36.2648 68.976 36.2648H61.8879C61.8693 36.2648 61.8632 36.234 61.8632 36.166C61.8632 36.1012 61.8693 36.0673 61.8879 36.0673C62.2985 36.0673 62.5979 36.0395 62.7893 35.9808C62.9869 35.9252 63.1166 35.8172 63.1845 35.6598C63.2493 35.4961 63.2833 35.2461 63.2833 34.9065V27.1515C63.2833 26.8243 63.2493 26.5804 63.1845 26.4229C63.1166 26.2686 62.9869 26.1605 62.7893 26.1019C62.5979 26.037 62.2985 26.0031 61.8879 26.0031C61.8693 26.0031 61.8632 25.9722 61.8632 25.9043C61.8632 25.8302 61.8693 25.7932 61.8879 25.7932H68.692C68.7908 25.7932 68.8402 25.8487 68.8402 25.9537L68.8772 28.0406C68.8772 28.0746 68.8433 28.09 68.7784 28.09C68.7198 28.09 68.692 28.0746 68.692 28.0406C68.6241 27.4417 68.4203 26.9786 68.0745 26.6576C67.7288 26.3303 67.275 26.1636 66.7162 26.1636H65.79C65.2714 26.1636 64.9256 26.2377 64.7528 26.3859C64.586 26.5341 64.5058 26.815 64.5058 27.2256V30.6338H66.4322C66.991 30.6338 67.3954 30.5412 67.6423 30.3498C67.8955 30.1615 68.0252 29.8559 68.0252 29.436C68.0252 29.4113 68.056 29.399 68.1239 29.399C68.1888 29.399 68.2227 29.4113 68.2227 29.436L68.2104 30.8191C68.2104 31.1494 68.2135 31.3964 68.2227 31.56L68.2351 32.3997C68.2351 32.4182 68.2011 32.4244 68.1363 32.4244C68.0684 32.4244 68.0375 32.4182 68.0375 32.3997C68.0375 31.9058 67.9078 31.5538 67.6547 31.3377C67.3985 31.1154 66.9786 31.0043 66.3951 31.0043H64.5058V34.8447C64.5058 35.1349 64.5366 35.351 64.6046 35.4992C64.6694 35.6412 64.7836 35.7431 64.9503 35.8079C65.1232 35.8666 65.3825 35.8944 65.7283 35.8944H66.9138C67.5065 35.8944 67.9943 35.7091 68.3833 35.3387C68.7784 34.9621 69.0501 34.4341 69.1983 33.7581Z" fill="white"/>
<path d="M79.6453 25.6204C80.3183 25.6204 80.8987 25.6698 81.3865 25.7685C81.8712 25.8612 82.3497 26.0155 82.8189 26.2378C82.893 26.281 82.9362 26.3211 82.9548 26.3613C82.9702 26.4045 82.9856 26.4909 83.0042 26.6206L83.2141 28.6581C83.2141 28.6921 83.1801 28.7168 83.1153 28.7322C83.0566 28.7415 83.0227 28.7261 83.0165 28.6828C82.4639 26.8151 81.3062 25.8797 79.5465 25.8797C78.6389 25.8797 77.8424 26.0896 77.1509 26.5095C76.4594 26.9231 75.9191 27.5097 75.5332 28.2753C75.1535 29.0348 74.9652 29.9239 74.9652 30.9426C74.9652 31.9244 75.1689 32.8166 75.5826 33.6223C76.0025 34.4219 76.5705 35.0517 77.2867 35.5117C78.0029 35.9747 78.784 36.2032 79.633 36.2032C80.5128 36.2032 81.2321 35.9809 81.794 35.5364C82.362 35.0918 82.8128 34.4095 83.1523 33.4865C83.1585 33.4556 83.1925 33.4463 83.2511 33.4618C83.3067 33.471 83.3376 33.4834 83.3376 33.4988L83.1647 35.3758C83.14 35.5086 83.1184 35.595 83.1029 35.6351C83.0844 35.6784 83.0412 35.7185 82.9671 35.7586C82.3991 36.0303 81.8557 36.2217 81.3371 36.3267C80.8246 36.4316 80.2535 36.4872 79.6206 36.4872C78.4413 36.4872 77.3917 36.2588 76.4717 35.7957C75.5579 35.3264 74.8355 34.6781 74.3107 33.8446C73.792 33.0141 73.5327 32.0633 73.5327 30.992C73.5327 29.9393 73.7951 29.0039 74.323 28.1889C74.8478 27.3739 75.5764 26.7441 76.5087 26.2995C77.438 25.8488 78.4845 25.6204 79.6453 25.6204Z" fill="white"/>
<path d="M94.7162 33.7581C94.7162 33.7272 94.7471 33.7148 94.815 33.721C94.8798 33.721 94.9138 33.7395 94.9138 33.7704C94.815 34.4959 94.7656 35.2461 94.7656 36.0179C94.7656 36.1105 94.744 36.1753 94.7039 36.2154C94.6607 36.2494 94.5927 36.2648 94.4939 36.2648H87.4058C87.3873 36.2648 87.3811 36.234 87.3811 36.166C87.3811 36.1012 87.3873 36.0673 87.4058 36.0673C87.8164 36.0673 88.1159 36.0395 88.3073 35.9808C88.5048 35.9252 88.6345 35.8172 88.7024 35.6598C88.7672 35.4961 88.8012 35.2461 88.8012 34.9065V27.1515C88.8012 26.8243 88.7672 26.5804 88.7024 26.4229C88.6345 26.2686 88.5048 26.1605 88.3073 26.1019C88.1159 26.037 87.8164 26.0031 87.4058 26.0031C87.3873 26.0031 87.3811 25.9722 87.3811 25.9043C87.3811 25.8302 87.3873 25.7932 87.4058 25.7932H94.2099C94.3087 25.7932 94.3581 25.8487 94.3581 25.9537L94.3952 28.0406C94.3952 28.0746 94.3612 28.09 94.2964 28.09C94.2377 28.09 94.2099 28.0746 94.2099 28.0406C94.142 27.4417 93.9383 26.9786 93.5925 26.6576C93.2467 26.3303 92.7929 26.1636 92.2341 26.1636H91.308C90.7893 26.1636 90.4436 26.2377 90.2707 26.3859C90.104 26.5341 90.0237 26.815 90.0237 27.2256V30.6338H91.9501C92.5089 30.6338 92.9133 30.5412 93.1603 30.3498C93.4134 30.1615 93.5431 29.8559 93.5431 29.436C93.5431 29.4113 93.574 29.399 93.6419 29.399C93.7067 29.399 93.7407 29.4113 93.7407 29.436L93.7283 30.8191C93.7283 31.1494 93.7314 31.3964 93.7407 31.56L93.753 32.3997C93.753 32.4182 93.7191 32.4244 93.6542 32.4244C93.5863 32.4244 93.5554 32.4182 93.5554 32.3997C93.5554 31.9058 93.4258 31.5538 93.1726 31.3377C92.9164 31.1154 92.4965 31.0043 91.9131 31.0043H90.0237V34.8447C90.0237 35.1349 90.0546 35.351 90.1225 35.4992C90.1873 35.6412 90.3016 35.7431 90.4683 35.8079C90.6412 35.8666 90.9005 35.8944 91.2462 35.8944H92.4317C93.0245 35.8944 93.5122 35.7091 93.9012 35.3387C94.2964 34.9621 94.568 34.4341 94.7162 33.7581Z" fill="white"/>
<path d="M109.424 25.7932C109.455 25.7932 109.473 25.8302 109.473 25.9043C109.473 25.9722 109.455 26.0031 109.424 26.0031C108.64 26.0031 108.053 26.4816 107.658 27.4355L104.176 36.2525C104.166 36.2926 104.105 36.3142 103.99 36.3142C103.907 36.3142 103.848 36.2926 103.818 36.2525L99.6437 27.1886C99.4368 26.7687 99.23 26.4692 99.0262 26.2871C98.8194 26.0988 98.557 26.0031 98.2359 26.0031C98.205 26.0031 98.1865 25.9722 98.1865 25.9043C98.1865 25.8302 98.205 25.7932 98.2359 25.7932L98.804 25.8178C99.1158 25.8425 99.3782 25.8549 99.5943 25.8549C100.128 25.8549 100.662 25.8425 101.2 25.8178C101.379 25.8024 101.613 25.7932 101.903 25.7932C101.934 25.7932 101.953 25.8302 101.953 25.9043C101.953 25.9722 101.934 26.0031 101.903 26.0031C101.212 26.0031 100.866 26.2099 100.866 26.6205C100.866 26.778 100.916 26.9663 101.014 27.1886L104.41 34.5854L107.275 27.3614C107.365 27.1145 107.411 26.9138 107.411 26.7563C107.411 26.5032 107.306 26.3118 107.102 26.1883C106.895 26.0648 106.571 26.0031 106.127 26.0031C106.093 26.0031 106.077 25.9722 106.077 25.9043C106.077 25.8302 106.093 25.7932 106.127 25.7932L106.855 25.8178C107.257 25.8425 107.621 25.8549 107.942 25.8549C108.155 25.8549 108.417 25.8425 108.732 25.8178L109.424 25.7932Z" fill="white"/>
<path d="M114.664 24.3238C114.423 24.3238 114.235 24.2558 114.096 24.1138C113.954 23.9749 113.886 23.7804 113.886 23.5334C113.886 23.3112 113.954 23.1352 114.096 23.0024C114.235 22.8728 114.423 22.8049 114.664 22.8049C114.902 22.8049 115.087 22.8728 115.22 23.0024C115.35 23.1352 115.417 23.3112 115.417 23.5334C115.417 23.7804 115.35 23.9749 115.22 24.1138C115.087 24.2558 114.902 24.3238 114.664 24.3238ZM115.294 34.9066C115.294 35.2523 115.325 35.5055 115.393 35.6599C115.458 35.8173 115.584 35.9253 115.776 35.9809C115.964 36.0396 116.263 36.0674 116.677 36.0674C116.702 36.0674 116.714 36.1013 116.714 36.1661C116.714 36.2341 116.702 36.2649 116.677 36.2649C116.331 36.2649 116.06 36.2619 115.862 36.2526L114.652 36.2279L113.503 36.2526C113.287 36.2619 113 36.2649 112.639 36.2649C112.605 36.2649 112.59 36.2341 112.59 36.1661C112.59 36.1013 112.605 36.0674 112.639 36.0674C113.059 36.0674 113.361 36.0396 113.553 35.9809C113.741 35.9253 113.868 35.8173 113.936 35.6599C114.01 35.4962 114.047 35.2462 114.047 34.9066V27.1516C114.047 26.8244 114.01 26.5805 113.936 26.423C113.868 26.2687 113.741 26.1606 113.553 26.102C113.361 26.0371 113.059 26.0032 112.639 26.0032C112.605 26.0032 112.59 25.9723 112.59 25.9044C112.59 25.8303 112.605 25.7933 112.639 25.7933L113.503 25.8179C113.963 25.8426 114.346 25.855 114.652 25.855C114.973 25.855 115.38 25.8426 115.874 25.8179L116.677 25.7933C116.702 25.7933 116.714 25.8303 116.714 25.9044C116.714 25.9723 116.702 26.0032 116.677 26.0032C116.273 26.0032 115.973 26.0371 115.776 26.102C115.584 26.1699 115.458 26.2841 115.393 26.4477C115.325 26.6052 115.294 26.8522 115.294 27.1887V34.9066Z" fill="white"/>
<path d="M123.221 26.1142C122.529 26.1142 121.992 26.3057 121.615 26.6823C121.245 27.0527 120.976 27.664 120.813 28.5099C120.794 28.5439 120.757 28.5593 120.701 28.5593C120.643 28.5531 120.615 28.5346 120.615 28.5099C120.655 28.1981 120.705 27.6949 120.763 27.0034C120.819 26.3118 120.85 25.7901 120.85 25.4351C120.85 25.3795 120.88 25.3486 120.948 25.3486C121.013 25.3486 121.047 25.3795 121.047 25.4351C121.047 25.6759 121.347 25.7932 121.949 25.7932C122.912 25.8364 124.036 25.8549 125.32 25.8549C125.977 25.8549 126.672 25.8426 127.407 25.8179L128.543 25.7932C128.944 25.7932 129.247 25.7685 129.444 25.7191C129.642 25.6635 129.765 25.5524 129.815 25.3857C129.83 25.3363 129.864 25.3116 129.914 25.3116C129.969 25.3116 130 25.3363 130 25.3857C129.966 25.7067 129.932 26.2069 129.901 26.8799C129.867 27.556 129.852 28.0993 129.852 28.5099C129.852 28.5346 129.818 28.5469 129.753 28.5469C129.694 28.5469 129.66 28.5346 129.654 28.5099C129.605 27.6547 129.401 27.0404 129.049 26.6699C128.703 26.2995 128.16 26.1142 127.419 26.1142C126.975 26.1142 126.653 26.1389 126.456 26.1883C126.265 26.2316 126.135 26.3242 126.061 26.4724C125.987 26.6144 125.95 26.8521 125.95 27.1886V34.9065C125.95 35.2523 125.987 35.5054 126.061 35.6598C126.135 35.8172 126.277 35.9253 126.493 35.9808C126.715 36.0395 127.064 36.0673 127.543 36.0673C127.567 36.0673 127.58 36.1012 127.58 36.1661C127.58 36.234 127.567 36.2649 127.543 36.2649C127.163 36.2649 126.863 36.2618 126.641 36.2525L125.32 36.2278L124.048 36.2525C123.816 36.2618 123.505 36.2649 123.109 36.2649C123.085 36.2649 123.072 36.234 123.072 36.1661C123.072 36.1012 123.085 36.0673 123.109 36.0673C123.579 36.0673 123.924 36.0395 124.147 35.9808C124.369 35.9253 124.517 35.8172 124.591 35.6598C124.672 35.4962 124.715 35.2461 124.715 34.9065V27.1515C124.715 26.8305 124.678 26.602 124.604 26.46C124.53 26.3211 124.394 26.2316 124.196 26.1883C124.005 26.1389 123.681 26.1142 123.221 26.1142Z" fill="white"/>
<path d="M45.0664 79.6267C44.9398 79.6483 44.8009 79.6853 44.6651 79.7316C44.8379 79.3951 44.9491 79.108 44.9491 78.966C44.9491 78.8456 44.8225 78.6666 44.6959 78.6666C44.4829 78.6666 43.8562 79.4167 42.9733 80.2102C42.8251 80.3398 43.0628 80.2657 43.1678 80.2102C43.3746 80.0928 43.5074 79.9971 43.6339 79.8767C44.0877 79.4322 44.5261 79.0309 44.591 79.0772C44.6496 79.1204 44.4582 79.5495 44.2637 79.9076C43.5104 80.2781 42.7911 80.8955 42.7911 81.1178C42.7911 81.2937 42.9733 81.4296 43.1246 81.4296C43.4364 81.4296 43.9025 80.9912 44.2946 80.3738C44.3841 80.2287 44.4675 80.0867 44.5416 79.9539C44.6589 79.8922 44.77 79.8428 44.8595 79.8057C45.1497 79.6946 45.267 79.5958 45.0664 79.6267ZM44.0353 80.2842C43.8593 80.522 43.248 81.3154 43.1215 81.1301C43.035 81.0066 43.5382 80.5837 44.0661 80.2348L44.0353 80.2842Z" fill="white"/>
<path d="M48.5437 78.3579C48.624 78.3579 48.6394 78.2962 48.6888 78.2684C48.7351 78.2406 48.8525 78.2406 48.8525 78.1511C48.8525 78.0616 48.7568 77.9844 48.6394 77.9844C48.4388 77.9844 48.3585 78.0616 48.3585 78.1634C48.3585 78.2622 48.4666 78.3579 48.5437 78.3579ZM47.0588 80.911C47.3706 80.911 47.9109 80.3399 48.3925 79.8768C48.4913 79.7749 48.6024 79.3829 48.448 79.5372C47.8615 80.13 47.1977 80.7103 47.0866 80.5961C46.9045 80.4109 47.9634 79.1081 48.0961 79.1081C48.1733 79.1081 48.1331 78.8457 47.9788 78.8457C47.8831 78.8457 47.704 79.0711 47.3089 79.5496C47.0681 79.8398 46.8057 80.2781 46.8057 80.5745C46.8057 80.7227 46.9322 80.911 47.0588 80.911Z" fill="white"/>
<path d="M49.5449 81.1549C49.619 81.1549 49.7301 80.9542 49.9709 80.6733C50.258 80.3368 51.5114 79.2841 51.5855 79.3366C51.6596 79.389 50.8446 80.2411 50.8446 80.627C50.8446 80.7474 50.9711 80.9295 51.1409 80.9295C51.4743 80.9295 52.4005 79.954 52.4993 79.8614C52.6475 79.7286 52.632 79.4415 52.5363 79.5372C52.3511 79.7225 51.2891 80.7443 51.1625 80.6116C50.9835 80.4263 52.1566 79.0896 52.1566 78.9507C52.1566 78.9198 52.1288 78.8828 52.0887 78.855C52.0671 78.8117 52.03 78.787 51.9806 78.787C51.8016 78.787 50.9464 79.4415 50.0666 80.2288C49.9678 80.3214 50.2889 79.8799 50.4525 79.67C50.7087 79.352 50.9711 79.0618 51.0391 79.0618C51.178 79.0618 50.9403 78.6697 50.823 78.8087C50.3259 79.389 49.7239 80.2565 49.4059 80.7999C49.3442 80.911 49.4276 81.1549 49.5449 81.1549Z" fill="white"/>
<path d="M53.8857 81.1179C54.182 81.1179 54.8211 80.6116 55.1236 80.272C55.1637 80.2257 55.2378 80.1454 55.1607 80.1824C55.1174 80.2041 55.0063 80.272 54.8056 80.4047C54.5525 80.5745 54.1172 80.8184 53.9906 80.8184C53.9598 80.8184 53.9443 80.7968 53.9443 80.7474C53.9443 80.5838 54.1975 80.1608 54.5247 79.7904C54.8952 79.3736 55.2903 78.9877 55.3984 79.0618C55.4725 79.1081 55.3088 79.352 55.2286 79.4045C55.1545 79.4539 55.2162 79.5372 55.3706 79.5372C55.528 79.5372 55.7411 79.2563 55.7411 79.0525C55.7411 78.8704 55.5867 78.7716 55.4015 78.7809C55.0897 78.8025 54.642 79.2038 54.2499 79.6638C53.8949 80.0775 53.6479 80.5683 53.6479 80.8215C53.6479 80.9295 53.7529 81.1179 53.8857 81.1179Z" fill="white"/>
<path d="M59.1933 79.5311C58.6129 80.0868 57.6343 80.9697 57.412 80.7104C57.3318 80.6209 57.4059 80.4109 57.554 80.1732C58.2301 79.9016 59.0297 79.3644 59.0451 79.0402C59.0513 78.8859 58.9093 78.7655 58.7704 78.7593C58.3258 78.7439 57.1373 79.9911 57.1157 80.6054C57.1095 80.8061 57.2577 81.0222 57.4491 81.0284C57.7177 81.0407 58.0943 80.8061 58.9494 80.0405C59.2396 79.7812 59.2952 79.4323 59.1933 79.5311ZM58.6747 79.1081C58.7797 79.2193 58.2301 79.5681 57.8226 79.7873C58.156 79.3675 58.5697 79.0032 58.6747 79.1081Z" fill="white"/>
<path d="M67.1606 76.8082C66.5524 76.8082 64.5241 78.4104 64.4809 78.9939C64.4655 79.2409 64.7927 79.1729 64.7619 79.1081C64.5488 78.75 66.8025 76.8421 67.2409 77.12C67.5372 77.3114 66.9013 78.3734 66.327 79.0155C65.793 79.6021 65.2064 80.1022 64.5828 80.4726C63.7894 80.5066 63.0855 80.7844 63.0701 81.0407C63.0639 81.1179 63.1318 81.266 63.3448 81.266C63.6999 81.266 64.1846 81.0499 64.6816 80.732C65.015 80.7381 65.4318 80.8338 65.7127 81.266C65.8084 81.4081 65.972 81.2413 65.9257 81.124C65.8177 80.874 65.5182 80.59 65.0212 80.5004C65.5923 80.0929 66.1511 79.5804 66.537 79.1452C67.2563 78.3332 67.599 77.5985 67.6329 77.2064C67.6422 76.9996 67.3736 76.8082 67.1606 76.8082Z" fill="white"/>
<path d="M71.6732 77.1262C71.5867 77.1262 71.4818 77.1324 71.3645 77.1478C71.5126 77.0305 71.6022 76.9564 71.6361 76.9255C71.7349 76.8082 71.704 76.4223 71.491 76.5613C70.5309 77.2003 68.5273 79.8121 68.5273 80.7691C68.5273 81.1488 68.833 81.2939 68.9873 81.2939C69.5585 81.2939 72.3709 78.4321 72.3709 77.7498C72.3709 77.3207 72.0683 77.1262 71.6732 77.1262ZM68.87 80.9914C68.62 80.8277 69.0275 79.8398 69.6881 78.9353C70.1759 78.2685 70.6297 77.8023 70.9755 77.4874C71.0125 77.4967 71.065 77.5029 71.1329 77.4874C71.2904 77.4535 71.4355 77.3855 71.6454 77.3855C71.9634 77.3855 72.0838 77.4596 72.0838 77.651C72.0838 78.321 69.2714 81.2569 68.87 80.9914Z" fill="white"/>
<path d="M77.3027 76.694C77.1854 76.7928 76.8489 77.1694 76.642 77.3268C76.4352 77.4874 75.6356 78.0245 75.2929 78.2376C74.9503 78.4475 74.268 78.8303 74.1414 78.75C73.9562 78.6327 73.8667 79.1051 74.1569 79.1051C74.3791 79.1051 75.7838 78.2252 76.287 77.8918C75.5152 78.7284 74.4625 79.9386 73.95 80.6579C73.49 80.7536 73.0301 80.911 72.7862 81.0561C72.638 81.1549 72.9189 81.4883 72.993 81.3679C73.0578 81.2661 73.3573 81.1179 73.7278 81.0067C73.6753 81.1025 73.6506 81.1704 73.6506 81.2198C73.6506 81.3772 73.7278 81.3926 73.7926 81.3926C73.9346 81.3926 74.0396 81.2661 74.0396 81.1086C74.0396 81.0654 74.0673 81.0037 74.1137 80.9172C74.2773 80.8863 74.4471 80.8709 74.6076 80.8709C74.9194 80.8709 75.0028 81.0345 75.0614 81.0345C75.1201 81.0345 75.1942 80.9851 75.1942 80.9018C75.1942 80.7443 75.0089 80.5745 74.6848 80.5745C74.5736 80.5745 74.4532 80.5838 74.3205 80.5992C74.6385 80.1547 75.1448 79.5589 75.4411 79.2347C75.8949 78.7377 77.3922 77.0675 77.4787 76.9348C77.562 76.8051 77.42 76.5921 77.3027 76.694Z" fill="white"/>
<path d="M82.2004 77.302C82.1078 77.5984 81.2063 78.2992 80.2061 78.9352C80.0455 79.0339 79.8449 79.1574 79.6226 79.2933C79.6226 79.2037 79.6195 79.1266 79.6195 79.0525C79.6195 78.1479 80.6136 77.2681 81.407 77.2681C81.5335 77.2681 81.6539 77.3175 81.6817 77.407C81.7188 77.5243 82.0244 76.9532 81.4687 76.9532C80.3049 76.9532 79.3602 78.0368 79.3602 79.0463C79.3602 79.1945 79.3664 79.3365 79.3694 79.4569C78.6038 79.9385 77.7363 80.5158 77.7363 80.7381C77.7363 80.9542 77.8907 80.9696 77.9493 80.9696C77.9957 80.9696 78.079 80.9603 78.15 80.9233C78.2766 81.0283 78.397 81.1116 78.6872 81.1116C79.3015 81.1116 79.6565 80.8276 79.6565 80.2194C79.6565 79.9817 79.6504 79.781 79.6411 79.5958L80.3265 79.1358C81.0736 78.645 82.401 77.7651 82.4103 77.5428C82.4165 77.4132 82.2251 77.2125 82.2004 77.302ZM79.4065 80.0774C79.4065 80.4787 79.2429 80.7967 78.8199 80.7967C78.5359 80.7967 78.3599 80.6794 78.3599 80.6115C78.3599 80.5158 78.8415 80.1515 79.3849 79.7687C79.3972 79.9169 79.4065 80.0249 79.4065 80.0774Z" fill="white"/>
<path d="M36.7667 53.1628C37.3255 53.2122 37.7731 53.3974 38.1127 53.7185C38.4492 54.0395 38.619 54.4409 38.619 54.9163C38.619 55.2806 38.5233 55.614 38.335 55.9165C38.1436 56.2129 37.8904 56.4475 37.5694 56.6204C37.2483 56.7871 36.884 56.8674 36.4827 56.8674C36.2604 56.8674 36.0165 56.8581 35.7541 56.8427C35.6553 56.8334 35.538 56.8272 35.4084 56.818C35.2756 56.8118 35.1274 56.8056 34.9638 56.8056L34.2352 56.818C34.1025 56.8272 33.9265 56.8303 33.7042 56.8303C33.695 56.8303 33.6919 56.8118 33.6919 56.7686C33.6919 56.7284 33.695 56.7068 33.7042 56.7068C33.9574 56.7068 34.1426 56.6914 34.2599 56.6574C34.3834 56.6173 34.4637 56.5463 34.5069 56.4475C34.5563 56.3487 34.581 56.1975 34.581 55.9906V51.1623C34.581 50.9585 34.5594 50.8042 34.5193 50.7054C34.476 50.6066 34.3958 50.5418 34.2723 50.5078C34.155 50.4677 33.9759 50.4461 33.7289 50.4461C33.7042 50.4461 33.6919 50.4275 33.6919 50.3843C33.6919 50.3442 33.7042 50.3226 33.7289 50.3226H34.2352C34.5316 50.3411 34.7724 50.3473 34.9638 50.3473C35.0873 50.3473 35.2015 50.3442 35.3096 50.3349C35.4145 50.3287 35.5072 50.3226 35.5812 50.3226C35.7943 50.2979 36.0011 50.2855 36.1987 50.2855C36.7976 50.2855 37.2483 50.4152 37.5447 50.6683C37.8411 50.9153 37.9892 51.2456 37.9892 51.6562C37.9892 51.9958 37.8812 52.2953 37.6682 52.5577C37.4521 52.8139 37.1526 53.0146 36.7667 53.1628ZM35.9887 50.4461C35.8159 50.4461 35.6831 50.4646 35.5936 50.4955C35.5102 50.5294 35.4485 50.6004 35.4084 50.7054C35.3651 50.8042 35.3466 50.9647 35.3466 51.187V53.1628L35.8159 53.1751C36.2913 53.1751 36.6463 53.0455 36.8779 52.78C37.1156 52.5175 37.236 52.1687 37.236 51.7303C37.236 51.3444 37.131 51.0357 36.9272 50.8042C36.7297 50.5665 36.4148 50.4461 35.9887 50.4461ZM36.3222 56.6698C36.8223 56.6698 37.1927 56.5432 37.4335 56.287C37.6805 56.0246 37.804 55.6541 37.804 55.1756C37.804 54.6508 37.6496 54.2248 37.3471 53.9037C37.0507 53.5764 36.634 53.4067 36.0999 53.3974C35.9023 53.3912 35.6492 53.3974 35.3466 53.4221V55.9906C35.3466 56.1635 35.3713 56.2993 35.4207 56.3981C35.4701 56.4907 35.5627 56.5587 35.7047 56.608C35.8437 56.6513 36.0505 56.6698 36.3222 56.6698Z" fill="white"/>
<path d="M45.6984 55.262C45.6984 55.2466 45.7169 55.2435 45.7601 55.2497C45.8003 55.2497 45.8219 55.259 45.8219 55.2744C45.7632 55.7282 45.7354 56.1944 45.7354 56.6698C45.7354 56.7285 45.7231 56.7686 45.6984 56.7933C45.6737 56.818 45.6274 56.8303 45.5626 56.8303H41.1541C41.1448 56.8303 41.1417 56.8118 41.1417 56.7686C41.1417 56.7285 41.1448 56.7068 41.1541 56.7068C41.4165 56.7068 41.6048 56.6914 41.7221 56.6574C41.8363 56.6173 41.9135 56.5463 41.9567 56.4475C41.9969 56.3487 42.0185 56.1975 42.0185 55.9906V51.1623C42.0185 50.9585 41.9969 50.8042 41.9567 50.7054C41.9135 50.6066 41.8363 50.5418 41.7221 50.5078C41.6048 50.4677 41.4165 50.4461 41.1541 50.4461C41.1448 50.4461 41.1417 50.4275 41.1417 50.3843C41.1417 50.3442 41.1448 50.3226 41.1541 50.3226H45.3897C45.4545 50.3226 45.4885 50.3534 45.4885 50.409L45.5008 51.718C45.5008 51.7365 45.4792 51.7427 45.4391 51.7427C45.4051 51.7427 45.3897 51.7365 45.3897 51.718C45.3465 51.3413 45.2199 51.0511 45.0069 50.8536C44.7908 50.6498 44.5067 50.5448 44.1548 50.5448H43.5868C43.2564 50.5448 43.0372 50.5912 42.9323 50.6807C42.8335 50.7733 42.7841 50.9462 42.7841 51.1993V53.3233H43.9819C44.3277 53.3233 44.5777 53.2677 44.7352 53.1504C44.8895 53.0362 44.9698 52.8479 44.9698 52.5824C44.9698 52.5669 44.9883 52.5577 45.0316 52.5577C45.0717 52.5577 45.0933 52.5669 45.0933 52.5824L45.081 53.4468C45.081 53.6444 45.084 53.7987 45.0933 53.9037L45.1057 54.4223C45.1057 54.4409 45.084 54.447 45.0439 54.447C45.0007 54.447 44.9822 54.4409 44.9822 54.4223C44.9822 54.1198 44.8988 53.9006 44.7352 53.7679C44.5777 53.6289 44.3184 53.5579 43.9572 53.5579H42.7841V55.9412C42.7841 56.1234 42.8026 56.2592 42.8458 56.3487C42.886 56.4413 42.957 56.5062 43.0558 56.5463C43.1607 56.5803 43.3274 56.5957 43.5497 56.5957H44.2783C44.6488 56.5957 44.9513 56.4815 45.1921 56.2499C45.4391 56.0215 45.6058 55.6912 45.6984 55.262Z" fill="white"/>
<path d="M49.9245 50.52C49.4861 50.52 49.1527 50.6373 48.9242 50.8658C48.6927 51.0973 48.5229 51.4771 48.4179 52.0019C48.4087 52.0266 48.384 52.0389 48.3438 52.0389C48.3099 52.0327 48.2944 52.0204 48.2944 52.0019C48.3191 51.8136 48.3469 51.5048 48.3809 51.0757C48.421 50.6404 48.4426 50.3101 48.4426 50.0878C48.4426 50.057 48.4611 50.0384 48.5044 50.0384C48.5445 50.0384 48.5661 50.057 48.5661 50.0878C48.5661 50.2453 48.7544 50.3225 49.1341 50.3225C49.7269 50.341 50.4215 50.3471 51.2211 50.3471C51.6317 50.3471 52.067 50.341 52.53 50.3225H53.2339C53.4871 50.3225 53.6723 50.307 53.7896 50.2731C53.9131 50.2329 53.9903 50.1588 54.0242 50.0508C54.0304 50.0261 54.052 50.0137 54.086 50.0137C54.1261 50.0137 54.1477 50.0261 54.1477 50.0508C54.123 50.2576 54.0983 50.5694 54.0736 50.9893C54.0551 51.4091 54.0489 51.7487 54.0489 52.0019C54.0489 52.0204 54.0273 52.0266 53.9872 52.0266C53.9532 52.0266 53.9316 52.0204 53.9254 52.0019C53.8915 51.4678 53.7649 51.0881 53.5426 50.8658C53.3265 50.6373 52.9931 50.52 52.5424 50.52C52.2614 50.52 52.0608 50.5324 51.9373 50.5571C51.8138 50.5818 51.7274 50.6404 51.678 50.73C51.6348 50.8226 51.6162 50.9738 51.6162 51.1869V55.9905C51.6162 56.2066 51.6348 56.361 51.678 56.4597C51.7274 56.5524 51.8169 56.6172 51.9496 56.6573C52.0886 56.6913 52.3078 56.7067 52.6041 56.7067C52.6196 56.7067 52.6288 56.7283 52.6288 56.7685C52.6288 56.8117 52.6196 56.8302 52.6041 56.8302C52.3726 56.8302 52.1874 56.8271 52.0484 56.8179L51.2211 56.8055L50.4308 56.8179C50.2887 56.8271 50.0973 56.8302 49.8504 56.8302C49.8318 56.8302 49.8257 56.8117 49.8257 56.7685C49.8257 56.7283 49.8318 56.7067 49.8504 56.7067C50.1375 56.7067 50.3505 56.6913 50.4925 56.6573C50.6314 56.6172 50.7271 56.5462 50.7765 56.4474C50.8259 56.3486 50.8506 56.1973 50.8506 55.9905V51.1622C50.8506 50.9584 50.8259 50.8133 50.7765 50.73C50.7333 50.6404 50.653 50.5818 50.5295 50.5571C50.4061 50.5324 50.2023 50.52 49.9245 50.52Z" fill="white"/>
<path d="M63.251 56.7068C63.2665 56.7068 63.2757 56.7284 63.2757 56.7686C63.2757 56.8118 63.2665 56.8303 63.251 56.8303H61.8186C61.6519 56.8303 61.3401 56.5463 60.8801 55.9783C60.417 55.4102 59.8551 54.6199 59.1883 53.6073C58.9969 53.6413 58.8209 53.6567 58.6573 53.6567C58.6234 53.6567 58.4628 53.6505 58.1757 53.632V55.9906C58.1757 56.2067 58.1942 56.3611 58.2375 56.4599C58.2776 56.5525 58.3548 56.6173 58.4721 56.6574C58.5956 56.6914 58.7839 56.7068 59.0401 56.7068C59.0556 56.7068 59.0648 56.7284 59.0648 56.7686C59.0648 56.8118 59.0556 56.8303 59.0401 56.8303C58.8179 56.8303 58.645 56.8272 58.5215 56.818L57.7929 56.8056L57.0643 56.818C56.9316 56.8272 56.7556 56.8303 56.5333 56.8303C56.5241 56.8303 56.521 56.8118 56.521 56.7686C56.521 56.7284 56.5241 56.7068 56.5333 56.7068C56.7958 56.7068 56.9841 56.6914 57.1014 56.6574C57.2156 56.6173 57.2928 56.5463 57.336 56.4475C57.3854 56.3487 57.4101 56.1975 57.4101 55.9906V51.1623C57.4101 50.9585 57.3885 50.8042 57.3484 50.7054C57.3051 50.6066 57.2249 50.5418 57.1014 50.5078C56.9841 50.4677 56.805 50.4461 56.558 50.4461C56.5333 50.4461 56.521 50.4275 56.521 50.3843C56.521 50.3442 56.5333 50.3226 56.558 50.3226H57.0643C57.3607 50.3411 57.6015 50.3473 57.7929 50.3473C57.9318 50.3473 58.0677 50.3442 58.2004 50.3349C58.3301 50.3287 58.4474 50.3226 58.5462 50.3226C58.7993 50.2979 59.0401 50.2855 59.2624 50.2855C59.8212 50.2855 60.2534 50.409 60.559 50.656C60.8708 50.903 61.0283 51.2364 61.0283 51.6562C61.0283 52.0267 60.9171 52.3663 60.6949 52.6688C60.4788 52.9744 60.1916 53.2122 59.8304 53.385C60.4139 54.234 60.8986 54.8916 61.2876 55.3608C61.6827 55.8301 62.0316 56.1728 62.3372 56.3858C62.649 56.6019 62.9547 56.7068 63.251 56.7068ZM58.1757 53.385C58.364 53.4036 58.5709 53.4097 58.7932 53.4097C59.3118 53.4097 59.6823 53.2955 59.9045 53.064C60.1268 52.8355 60.238 52.4712 60.238 51.9773C60.238 51.4278 60.1206 51.0357 59.8922 50.8042C59.6606 50.5665 59.3303 50.4461 58.9043 50.4461C58.6326 50.4461 58.4412 50.5016 58.3363 50.6066C58.2282 50.7054 58.1757 50.8999 58.1757 51.187V53.385Z" fill="white"/>
<path d="M72.0266 56.7067C72.0574 56.7067 72.076 56.7283 72.076 56.7685C72.076 56.8117 72.0574 56.8302 72.0266 56.8302C71.8938 56.8302 71.6931 56.824 71.4215 56.8055C71.1405 56.7993 70.9337 56.7932 70.804 56.7932C70.6373 56.7932 70.4398 56.7993 70.2113 56.8055C69.989 56.824 69.8161 56.8302 69.6927 56.8302C69.6587 56.8302 69.6433 56.8117 69.6433 56.7685C69.6433 56.7283 69.6587 56.7067 69.6927 56.7067C69.9396 56.7067 70.1156 56.6882 70.2237 56.645C70.3286 56.5956 70.3842 56.5153 70.3842 56.398C70.3842 56.2931 70.3348 56.1356 70.236 55.9288L69.3469 54.0518H66.8525L66.235 55.4719C66.1424 55.688 66.0992 55.8794 66.0992 56.0523C66.0992 56.4906 66.4357 56.7067 67.1118 56.7067C67.1427 56.7067 67.1612 56.7283 67.1612 56.7685C67.1612 56.8117 67.1427 56.8302 67.1118 56.8302C66.9883 56.8302 66.8062 56.824 66.5684 56.8055C66.3029 56.7993 66.0776 56.7932 65.8893 56.7932C65.7071 56.7932 65.4941 56.7993 65.2471 56.8055C65.0403 56.824 64.8643 56.8302 64.7161 56.8302C64.6853 56.8302 64.6667 56.8117 64.6667 56.7685C64.6667 56.7283 64.6853 56.7067 64.7161 56.7067C64.9137 56.7067 65.0773 56.6697 65.2101 56.5956C65.349 56.5215 65.4818 56.3949 65.6052 56.2128C65.7287 56.0245 65.8646 55.7497 66.0128 55.3854L68.2232 50.236C68.2293 50.2113 68.254 50.199 68.2973 50.199C68.3374 50.199 68.3621 50.2113 68.3714 50.236L70.8534 55.3978C71.0912 55.9102 71.2918 56.256 71.4585 56.4351C71.6221 56.6172 71.8105 56.7067 72.0266 56.7067ZM66.9513 53.8295H69.2358L68.0256 51.3104L66.9513 53.8295Z" fill="white"/>
<path d="M76.8125 56.8672C76.6057 56.8672 76.368 56.8579 76.0963 56.8425C75.9883 56.8332 75.8617 56.827 75.7135 56.8178C75.5653 56.8116 75.3986 56.8054 75.2195 56.8054L74.5033 56.8178C74.3706 56.827 74.1946 56.8301 73.9723 56.8301C73.9538 56.8301 73.9476 56.8116 73.9476 56.7684C73.9476 56.7282 73.9538 56.7066 73.9723 56.7066C74.2255 56.7066 74.4107 56.6912 74.528 56.6572C74.6515 56.6171 74.7318 56.5461 74.775 56.4473C74.8244 56.3485 74.8491 56.1973 74.8491 55.9904V51.1621C74.8491 50.9583 74.8244 50.804 74.775 50.7052C74.7318 50.6064 74.6546 50.5416 74.5404 50.5076C74.4231 50.4675 74.2378 50.4459 73.9847 50.4459C73.9662 50.4459 73.96 50.4273 73.96 50.3841C73.96 50.344 73.9662 50.3224 73.9847 50.3224H74.5033C74.8059 50.3409 75.0467 50.3471 75.2195 50.3471C75.482 50.3471 75.7413 50.3409 75.9975 50.3224C76.334 50.3069 76.5563 50.2977 76.6643 50.2977C77.3867 50.2977 78.0258 50.4397 78.5784 50.7175C79.1372 50.9892 79.5694 51.3689 79.875 51.8536C80.1775 52.3321 80.3319 52.8662 80.3319 53.4589C80.3319 54.135 80.1745 54.7308 79.8627 55.2495C79.5478 55.7681 79.1217 56.1695 78.5784 56.4473C78.0412 56.7282 77.4547 56.8672 76.8125 56.8672ZM76.7137 56.7066C77.2478 56.7066 77.7202 56.5924 78.1338 56.3609C78.5444 56.1232 78.8655 55.7774 79.097 55.3236C79.3347 54.8729 79.4551 54.3295 79.4551 53.6936C79.4551 53.0946 79.344 52.5513 79.1217 52.0635C78.8995 51.5696 78.5815 51.1806 78.1709 50.8904C77.7665 50.6033 77.2972 50.4582 76.7631 50.4582C76.4668 50.4582 76.2352 50.4798 76.0716 50.5199C75.9142 50.5539 75.7938 50.6187 75.7135 50.7175C75.6394 50.8163 75.6024 50.9738 75.6024 51.1868V55.8669C75.6024 56.1726 75.6764 56.3917 75.8246 56.5214C75.9728 56.6449 76.2692 56.7066 76.7137 56.7066Z" fill="white"/>
<path d="M87.3972 55.262C87.3972 55.2466 87.4158 55.2435 87.459 55.2497C87.4991 55.2497 87.5207 55.259 87.5207 55.2744C87.4621 55.7282 87.4343 56.1944 87.4343 56.6698C87.4343 56.7285 87.4219 56.7686 87.3972 56.7933C87.3725 56.818 87.3262 56.8303 87.2614 56.8303H82.8529C82.8437 56.8303 82.8406 56.8118 82.8406 56.7686C82.8406 56.7285 82.8437 56.7068 82.8529 56.7068C83.1153 56.7068 83.3037 56.6914 83.421 56.6574C83.5352 56.6173 83.6124 56.5463 83.6556 56.4475C83.6957 56.3487 83.7173 56.1975 83.7173 55.9906V51.1623C83.7173 50.9585 83.6957 50.8042 83.6556 50.7054C83.6124 50.6066 83.5352 50.5418 83.421 50.5078C83.3037 50.4677 83.1153 50.4461 82.8529 50.4461C82.8437 50.4461 82.8406 50.4275 82.8406 50.3843C82.8406 50.3442 82.8437 50.3226 82.8529 50.3226H87.0885C87.1534 50.3226 87.1873 50.3534 87.1873 50.409L87.1997 51.718C87.1997 51.7365 87.1781 51.7427 87.1379 51.7427C87.104 51.7427 87.0885 51.7365 87.0885 51.718C87.0453 51.3413 86.9187 51.0511 86.7057 50.8536C86.4896 50.6498 86.2056 50.5448 85.8537 50.5448H85.2856C84.9553 50.5448 84.7361 50.5912 84.6311 50.6807C84.5323 50.7733 84.483 50.9462 84.483 51.1993V53.3233H85.6808C86.0265 53.3233 86.2766 53.2677 86.434 53.1504C86.5884 53.0362 86.6687 52.8479 86.6687 52.5824C86.6687 52.5669 86.6872 52.5577 86.7304 52.5577C86.7705 52.5577 86.7922 52.5669 86.7922 52.5824L86.7798 53.4468C86.7798 53.6444 86.7829 53.7987 86.7922 53.9037L86.8045 54.4223C86.8045 54.4409 86.7829 54.447 86.7428 54.447C86.6995 54.447 86.681 54.4409 86.681 54.4223C86.681 54.1198 86.5977 53.9006 86.434 53.7679C86.2766 53.6289 86.0173 53.5579 85.6561 53.5579H84.483V55.9412C84.483 56.1234 84.5015 56.2592 84.5447 56.3487C84.5848 56.4413 84.6558 56.5062 84.7546 56.5463C84.8596 56.5803 85.0263 56.5957 85.2486 56.5957H85.9771C86.3476 56.5957 86.6501 56.4815 86.8909 56.2499C87.1379 56.0215 87.3046 55.6912 87.3972 55.262Z" fill="white"/>
<path d="M96.7603 56.7068C96.7757 56.7068 96.785 56.7284 96.785 56.7686C96.785 56.8118 96.7757 56.8303 96.7603 56.8303H95.3279C95.1612 56.8303 94.8493 56.5463 94.3894 55.9783C93.9263 55.4102 93.3644 54.6199 92.6976 53.6073C92.5062 53.6413 92.3302 53.6567 92.1666 53.6567C92.1326 53.6567 91.9721 53.6505 91.685 53.632V55.9906C91.685 56.2067 91.7035 56.3611 91.7467 56.4599C91.7869 56.5525 91.8641 56.6173 91.9814 56.6574C92.1049 56.6914 92.2932 56.7068 92.5494 56.7068C92.5648 56.7068 92.5741 56.7284 92.5741 56.7686C92.5741 56.8118 92.5648 56.8303 92.5494 56.8303C92.3271 56.8303 92.1542 56.8272 92.0308 56.818L91.3022 56.8056L90.5736 56.818C90.4409 56.8272 90.2649 56.8303 90.0426 56.8303C90.0334 56.8303 90.0303 56.8118 90.0303 56.7686C90.0303 56.7284 90.0334 56.7068 90.0426 56.7068C90.305 56.7068 90.4933 56.6914 90.6107 56.6574C90.7249 56.6173 90.8021 56.5463 90.8453 56.4475C90.8947 56.3487 90.9194 56.1975 90.9194 55.9906V51.1623C90.9194 50.9585 90.8978 50.8042 90.8576 50.7054C90.8144 50.6066 90.7341 50.5418 90.6107 50.5078C90.4933 50.4677 90.3143 50.4461 90.0673 50.4461C90.0426 50.4461 90.0303 50.4275 90.0303 50.3843C90.0303 50.3442 90.0426 50.3226 90.0673 50.3226H90.5736C90.87 50.3411 91.1108 50.3473 91.3022 50.3473C91.4411 50.3473 91.5769 50.3442 91.7097 50.3349C91.8394 50.3287 91.9567 50.3226 92.0555 50.3226C92.3086 50.2979 92.5494 50.2855 92.7717 50.2855C93.3305 50.2855 93.7627 50.409 94.0683 50.656C94.3801 50.903 94.5375 51.2364 94.5375 51.6562C94.5375 52.0267 94.4264 52.3663 94.2041 52.6688C93.988 52.9744 93.7009 53.2122 93.3397 53.385C93.9232 54.234 94.4079 54.8916 94.7969 55.3608C95.192 55.8301 95.5409 56.1728 95.8465 56.3858C96.1583 56.6019 96.4639 56.7068 96.7603 56.7068ZM91.685 53.385C91.8733 53.4036 92.0802 53.4097 92.3024 53.4097C92.8211 53.4097 93.1915 53.2955 93.4138 53.064C93.6361 52.8355 93.7472 52.4712 93.7472 51.9773C93.7472 51.4278 93.6299 51.0357 93.4015 50.8042C93.1699 50.5665 92.8396 50.4461 92.4136 50.4461C92.1419 50.4461 91.9505 50.5016 91.8455 50.6066C91.7375 50.7054 91.685 50.8999 91.685 51.187V53.385Z" fill="white"/>
</svg>
