<svg width="33" height="33" viewBox="0 0 33 33" fill="none" xmlns="http://www.w3.org/2000/svg">
<g id="Social Icons">
<path id="BG" opacity="0.1" fill-rule="evenodd" clip-rule="evenodd" d="M0.5 16.0352C0.5 7.1986 7.66344 0.0351562 16.5 0.0351562C25.3366 0.0351562 32.5 7.1986 32.5 16.0352C32.5 24.8717 25.3366 32.0352 16.5 32.0352C7.66344 32.0352 0.5 24.8717 0.5 16.0352Z" fill="#FDFDFD"/>
<path id="Path" fill-rule="evenodd" clip-rule="evenodd" d="M16.0208 13.0401L16.0544 13.5938L15.4948 13.526C13.4579 13.2661 11.6784 12.3848 10.1676 10.9047L9.42891 10.1703L9.23865 10.7126C8.83575 11.9216 9.09316 13.1983 9.93253 14.057C10.3802 14.5316 10.2795 14.5994 9.50725 14.3169C9.23865 14.2265 9.00363 14.1587 8.98124 14.1926C8.9029 14.2717 9.1715 15.2999 9.38414 15.7066C9.67513 16.2716 10.2683 16.8252 10.9174 17.1529L11.4658 17.4127L10.8167 17.424C10.1899 17.424 10.1676 17.4353 10.2347 17.6726C10.4585 18.407 11.3427 19.1866 12.3276 19.5256L13.0214 19.7629L12.4171 20.1244C11.5218 20.6442 10.4697 20.9379 9.41772 20.9605C8.91409 20.9718 8.5 21.017 8.5 21.0509C8.5 21.1639 9.86538 21.7966 10.66 22.0452C13.0438 22.7796 15.8753 22.4632 18.0017 21.2091C19.5126 20.3165 21.0235 18.5426 21.7286 16.8252C22.1091 15.91 22.4896 14.2378 22.4896 13.4356C22.4896 12.9158 22.5232 12.8481 23.1499 12.2266C23.5192 11.8651 23.8662 11.4696 23.9333 11.3566C24.0452 11.142 24.034 11.142 23.4633 11.334C22.512 11.673 22.3777 11.6278 22.8477 11.1194C23.1947 10.7578 23.6088 10.1025 23.6088 9.91039C23.6088 9.8765 23.4409 9.93299 23.2506 10.0347C23.0492 10.1477 22.6015 10.3171 22.2658 10.4188L21.6614 10.6109L21.113 10.2381C20.8108 10.0347 20.3856 9.80871 20.1617 9.74091C19.5909 9.58273 18.718 9.60533 18.2032 9.78611C16.8042 10.2945 15.9201 11.6052 16.0208 13.0401Z" fill="#FDFDFD"/>
</g>
</svg>
