<svg width="33" height="33" viewBox="0 0 33 33" fill="none" xmlns="http://www.w3.org/2000/svg">
<path opacity="0.1" fill-rule="evenodd" clip-rule="evenodd" d="M0.5 16.0352C0.5 7.1986 7.66344 0.0351562 16.5 0.0351562C25.3366 0.0351562 32.5 7.1986 32.5 16.0352C32.5 24.8717 25.3366 32.0352 16.5 32.0352C7.66344 32.0352 0.5 24.8717 0.5 16.0352Z" fill="#FDFDFD"/>
<g clip-path="url(#clip0_533_1915)">
<path d="M8.0705 16.1918C8.07004 17.6715 8.45663 19.116 9.19158 20.3893L8 24.7399L12.4524 23.5725C13.6791 24.2414 15.0603 24.5941 16.4658 24.5946H16.4694C21.0982 24.5946 24.8662 20.8277 24.8682 16.1985C24.869 13.955 23.9961 11.8454 22.4105 10.2584C20.8247 8.67158 18.7161 7.79707 16.4694 7.79614C11.8399 7.79614 8.07235 11.5625 8.0705 16.1918ZM10.722 20.17L10.5557 19.9061C9.85689 18.7949 9.48803 17.5109 9.48855 16.1923C9.49007 12.3446 12.6215 9.21413 16.4721 9.21413C18.3368 9.21492 20.0892 9.94183 21.4073 11.2607C22.7254 12.5797 23.4506 14.3331 23.4502 16.198C23.4485 20.0457 20.317 23.1765 16.4694 23.1765H16.4667C15.2139 23.1759 13.9852 22.8394 12.9137 22.2036L12.6587 22.0524L10.0165 22.7451L10.722 20.17V20.17Z" fill="url(#paint0_linear_533_1915)"/>
<path d="M14.3701 12.6819C14.2129 12.3325 14.0475 12.3254 13.898 12.3193C13.7755 12.314 13.6356 12.3144 13.4958 12.3144C13.3558 12.3144 13.1284 12.367 12.9362 12.5769C12.7438 12.787 12.2017 13.2946 12.2017 14.3271C12.2017 15.3596 12.9537 16.3574 13.0585 16.4975C13.1635 16.6374 14.5103 18.8239 16.6433 19.6651C18.4161 20.3642 18.7768 20.2251 19.1616 20.1901C19.5464 20.1552 20.4032 19.6826 20.578 19.1925C20.753 18.7026 20.753 18.2826 20.7005 18.1948C20.6481 18.1074 20.5081 18.0549 20.2983 17.95C20.0883 17.845 19.0566 17.3373 18.8643 17.2673C18.6719 17.1973 18.532 17.1624 18.392 17.3725C18.2521 17.5823 17.8502 18.0549 17.7277 18.1948C17.6054 18.3351 17.4829 18.3526 17.2731 18.2476C17.0631 18.1423 16.3872 17.921 15.5854 17.2061C14.9615 16.6499 14.5403 15.9629 14.4179 15.7528C14.2955 15.543 14.4048 15.4293 14.51 15.3247C14.6043 15.2307 14.72 15.0797 14.825 14.9572C14.9296 14.8346 14.9646 14.7472 15.0345 14.6072C15.1046 14.4671 15.0695 14.3446 15.0171 14.2396C14.9646 14.1347 14.5568 13.0968 14.3701 12.6819Z" fill="white"/>
</g>
<defs>
<linearGradient id="paint0_linear_533_1915" x1="851.411" y1="1702.18" x2="851.411" y2="7.79614" gradientUnits="userSpaceOnUse">
<stop stop-color="#F9F9F9"/>
<stop offset="1" stop-color="white"/>
</linearGradient>
<clipPath id="clip0_533_1915">
<rect width="16.8682" height="17" fill="white" transform="translate(8 7.79614)"/>
</clipPath>
</defs>
</svg>
